HIERARCHY
ROOT hip
{
	OFFSET 0.000000 0.000000 0.000000
	CHANNELS 6 Xposition Yposition Zposition Xrotation Zrotation Yrotation 
	JOINT abdomen
	{
		OFFSET 0.000000 3.422050 0.000000
		CHANNELS 3 Xrotation Zrotation Yrotation 
		JOINT chest
		{
			OFFSET 0.000000 8.486693 -0.684411
			CHANNELS 3 Xrotation Zrotation Yrotation 
			JOINT neck
			{
				OFFSET 0.000000 10.266162 -0.273764
				CHANNELS 3 Xrotation Zrotation Yrotation 
				JOINT head
				{
					OFFSET 0.000000 3.148285 0.000000
					CHANNELS 3 Xrotation Zrotation Yrotation 
					End Site
					{
						OFFSET 0.000000 3.148289 0.000000
					}
				}
			}
			JOINT lCollar
			{
				OFFSET 3.422053 6.707223 -0.821293
				CHANNELS 3 Yrotation Zrotation Xrotation 
				JOINT lShldr
				{
					OFFSET 3.285171 0.000000 0.000000
					CHANNELS 3 Zrotation Yrotation Xrotation 
					JOINT lForeArm
					{
						OFFSET 10.129278 0.000000 0.000000
						CHANNELS 3 Yrotation Zrotation Xrotation 
						JOINT lHand
						{
							OFFSET 8.486692 0.000000 0.000000
							CHANNELS 3 Zrotation Yrotation Xrotation 
							End Site
							{
								OFFSET 4.106464 0.000000 0.000000
							}
						}
					}
				}
			}
			JOINT rCollar
			{
				OFFSET -3.558935 6.707223 -0.821293
				CHANNELS 3 Yrotation Zrotation Xrotation 
				JOINT rShldr
				{
					OFFSET -3.148289 0.000000 0.000000
					CHANNELS 3 Zrotation Yrotation Xrotation 
					JOINT rForeArm
					{
						OFFSET -10.266159 0.000000 0.000000
						CHANNELS 3 Yrotation Zrotation Xrotation 
						JOINT rHand
						{
							OFFSET -8.349810 0.000000 0.000000
							CHANNELS 3 Zrotation Yrotation Xrotation 
							End Site
							{
								OFFSET -4.106464 0.000000 0.000000
							}
						}
					}
				}
			}
		}
	}
	JOINT lThigh
	{
		OFFSET 5.338403 -1.642589 1.368821
		CHANNELS 3 Xrotation Zrotation Yrotation 
		JOINT lShin
		{
			OFFSET -2.053232 -20.121670 0.000000
			CHANNELS 3 Xrotation Zrotation Yrotation 
			JOINT lFoot
			{
				OFFSET 0.000000 -19.300380 -1.231939
				CHANNELS 3 Xrotation Yrotation Zrotation 
				End Site
				{
					OFFSET 0.000000 -2.463878 4.653993
				}
			}
		}
	}
	JOINT rThigh
	{
		OFFSET -5.338403 -1.642589 1.368821
		CHANNELS 3 Xrotation Zrotation Yrotation 
		JOINT rShin
		{
			OFFSET 2.053232 -20.121670 0.000000
			CHANNELS 3 Xrotation Zrotation Yrotation 
			JOINT rFoot
			{
				OFFSET 0.000000 -19.300380 -1.231939
				CHANNELS 3 Xrotation Yrotation Zrotation 
				End Site
				{
					OFFSET 0.000000 -2.463878 4.653993
				}
			}
		}
	}
}
MOTION
Frames: 6
Frame Time: 0.049989
0.000000 13.417293 30.972179 -71.009506 -0.004270 -179.996964 17.291811 0.217691 -0.001816 -29.775257 -0.002932 0.327922 -1.744209 0.000000 0.000000 2.056661 -0.054202 -0.000974 -26.335464 11.217294 38.979546 17.948437 -14.206446 -107.813599 -86.921021 -0.781125 -33.016487 -16.715609 -29.596319 25.574163 26.212275 -11.075986 38.909904 -17.955420 14.183023 -107.812988 86.867134 0.749564 -33.014229 16.683769 29.574165 25.567083 -104.796486 58.241104 -28.801529 132.413406 -2.387721 -0.183749 17.538521 1.748983 4.872131 -104.789856 -58.249104 28.777401 132.411514 2.357231 0.166560 17.531727 -1.737534 -4.891653 
0.000000 13.388519 31.050909 -71.009506 -0.004270 -179.996964 17.922741 0.217769 -0.001919 -30.275209 -0.002943 0.327982 -2.480006 0.000000 0.000000 1.456901 -0.054212 -0.000691 -26.329700 12.172350 38.444103 17.707928 -13.923498 -107.792648 -86.387108 -0.616664 -33.010727 -16.448927 -29.537733 24.801634 26.209579 -12.040414 38.377663 -17.714430 13.905712 -107.792427 86.335098 0.586059 -33.008209 16.236450 29.465731 24.809124 -105.318130 58.196865 -29.230150 132.413406 -2.387721 -0.183749 17.538521 1.748983 4.872131 -105.312683 -58.205807 29.207729 132.411514 2.357231 0.166560 17.531727 -1.737534 -4.891653 
0.000000 13.359746 31.129639 -71.009506 -0.004270 -179.996964 18.553951 0.217849 -0.002022 -30.775221 -0.002953 0.328041 -3.216259 0.000000 0.000000 0.857043 -0.054218 -0.000407 -26.314739 13.127840 37.906261 17.467798 -13.640449 -107.772911 -85.853188 -0.452129 -33.006516 -16.183273 -29.476006 24.029715 26.197657 -13.005303 37.843060 -17.473814 13.628304 -107.773079 85.803032 0.422487 -33.003712 15.791083 29.352114 24.052607 -105.838516 58.150578 -29.657494 132.413406 -2.387721 -0.183749 17.538521 1.748983 4.872131 -105.834259 -58.160419 29.636795 132.411514 2.357231 0.166560 17.531727 -1.737534 -4.891653 
0.000000 13.330974 31.208368 -71.009506 -0.004270 -179.996964 19.185421 0.217929 -0.002124 -31.275263 -0.002964 0.328100 -3.952907 0.000000 0.000000 0.257119 -0.054222 -0.000123 -26.290462 14.083495 37.365791 17.228043 -13.357308 -107.754417 -85.319191 -0.287545 -33.003819 -15.918726 -29.411160 23.258501 26.176411 -13.970406 37.305904 -17.233568 13.350811 -107.754974 85.270920 0.258862 -33.000729 15.347776 29.233318 23.297640 -106.357552 58.102215 -30.083462 132.413406 -2.387721 -0.183749 17.538521 1.748983 4.872131 -106.354553 -58.112984 30.064543 132.411514 2.357231 0.166560 17.531727 -1.737534 -4.891653 
0.000000 13.302200 31.287096 -71.009506 -0.004270 -179.996964 19.817099 0.218011 -0.002225 -31.775331 -0.002973 0.328160 -4.689893 0.000000 0.000000 -0.342838 -0.054223 0.000161 -26.256735 15.039058 36.822453 16.988657 -13.074091 -107.737175 -84.785210 -0.122936 -33.002666 -15.655360 -29.343218 22.488092 26.145700 -14.935449 36.765934 -16.993671 13.073235 -107.738052 84.738808 0.095209 -32.999275 14.906659 29.109409 22.544353 -106.875237 58.051842 -30.508047 132.413406 -2.387721 -0.183749 17.538521 1.748983 4.872131 -106.873505 -58.063515 30.490911 132.411514 2.357231 0.166560 17.531727 -1.737534 -4.891653 
0.000000 13.273427 31.365826 -71.009506 -0.004270 -179.996964 20.448946 0.218095 -0.002325 -32.275406 -0.002982 0.328220 -5.427152 0.000000 0.000000 -0.942795 -0.054220 0.000445 -26.213430 15.994267 36.276001 16.749626 -12.790804 -107.721161 -84.251244 0.041676 -33.003056 -15.393247 -29.272203 21.718578 26.105389 -15.900162 36.222919 -16.754129 12.795593 -107.722359 84.206696 -0.068448 -32.999336 14.467845 28.980412 21.792870 -107.391495 57.999439 -30.931171 132.413406 -2.387721 -0.183749 17.538521 1.748983 4.872131 -107.391083 -58.012020 30.915861 132.411514 2.357231 0.166560 17.531727 -1.737534 -4.891653 
